<svg width="20" height="20" viewBox="0 0 20 20" fill="none" xmlns="http://www.w3.org/2000/svg">
<path d="M16.7857 15.7154H16.25V8.12612C16.25 4.97656 13.9219 2.37388 10.8929 1.94085V1.07254C10.8929 0.579241 10.4933 0.179688 10 0.179688C9.5067 0.179688 9.10714 0.579241 9.10714 1.07254V1.94085C6.07813 2.37388 3.75 4.97656 3.75 8.12612V15.7154H3.21429C2.8192 15.7154 2.5 16.0346 2.5 16.4297V17.144C2.5 17.2422 2.58036 17.3225 2.67857 17.3225H7.5C7.5 18.702 8.62054 19.8225 10 19.8225C11.3795 19.8225 12.5 18.702 12.5 17.3225H17.3214C17.4196 17.3225 17.5 17.2422 17.5 17.144V16.4297C17.5 16.0346 17.1808 15.7154 16.7857 15.7154ZM10 18.394C9.40848 18.394 8.92857 17.9141 8.92857 17.3225H11.0714C11.0714 17.9141 10.5915 18.394 10 18.394ZM5.35714 15.7154V8.12612C5.35714 6.88505 5.83929 5.71987 6.71652 4.84263C7.59375 3.9654 8.75893 3.48326 10 3.48326C11.2411 3.48326 12.4063 3.9654 13.2835 4.84263C14.1607 5.71987 14.6429 6.88505 14.6429 8.12612V15.7154H5.35714Z" fill="#8C8C8C"/>
</svg>
