<svg width="10" height="10" viewBox="0 0 10 10" fill="none" xmlns="http://www.w3.org/2000/svg">
<path d="M9.74839 0.960938H8.55757C8.29858 0.960938 8.05229 1.08535 7.89995 1.29863L3.90853 6.83379L2.10072 4.3252C1.94837 4.11445 1.70462 3.9875 1.4431 3.9875H0.252275C0.0872357 3.9875 -0.00924886 4.17539 0.0872357 4.30996L3.25091 8.69746C3.32565 8.80178 3.42418 8.88677 3.53832 8.94541C3.65246 9.00404 3.77894 9.03463 3.90726 9.03463C4.03559 9.03463 4.16206 9.00404 4.27621 8.94541C4.39035 8.88677 4.48887 8.80178 4.56361 8.69746L9.91089 1.2834C10.0099 1.14883 9.91343 0.960938 9.74839 0.960938V0.960938Z" fill="#6B7A99"/>
</svg>
