<svg width="18" height="18" viewBox="0 0 18 18" fill="none" xmlns="http://www.w3.org/2000/svg">
<path d="M10.0399 9.00223L15.3134 2.71629C15.4018 2.61183 15.3274 2.45312 15.1908 2.45312H13.5877C13.4933 2.45312 13.4029 2.49531 13.3406 2.56763L8.99129 7.75268L4.64196 2.56763C4.58169 2.49531 4.49129 2.45312 4.39486 2.45312H2.79173C2.65513 2.45312 2.5808 2.61183 2.66919 2.71629L7.94263 9.00223L2.66919 15.2882C2.64939 15.3115 2.63669 15.3399 2.63259 15.3702C2.62849 15.4005 2.63317 15.4313 2.64607 15.459C2.65898 15.4868 2.67956 15.5102 2.70538 15.5265C2.7312 15.5429 2.76117 15.5515 2.79173 15.5513H4.39486C4.48928 15.5513 4.57968 15.5092 4.64196 15.4368L8.99129 10.2518L13.3406 15.4368C13.4009 15.5092 13.4913 15.5513 13.5877 15.5513H15.1908C15.3274 15.5513 15.4018 15.3926 15.3134 15.2882L10.0399 9.00223Z" fill="#2F384A"/>
</svg>
