<svg width="32" height="32" viewBox="0 0 32 32" fill="none" xmlns="http://www.w3.org/2000/svg">
<circle cx="16" cy="16" r="16" fill="#E4E7ED"/>
<path d="M15.4941 23.1889C14.455 23.1889 13.5307 23.0202 12.721 22.6829C11.9159 22.341 11.2839 21.8755 10.8251 21.2862C10.3663 20.697 10.1369 20.029 10.1369 19.2823C10.1369 18.7066 10.2673 18.178 10.5282 17.6967C10.7936 17.2109 11.1534 16.8084 11.6077 16.489C12.062 16.1651 12.5703 15.9582 13.1326 15.8683V15.7738C12.3949 15.6254 11.7967 15.2678 11.3378 14.701C10.879 14.1297 10.6496 13.4663 10.6496 12.7106C10.6496 11.9954 10.8588 11.3589 11.2771 10.8011C11.6954 10.2389 12.269 9.79806 12.9976 9.47869C13.7308 9.15483 14.563 8.9929 15.4941 8.9929C16.4252 8.9929 17.2551 9.15483 17.9838 9.47869C18.717 9.80256 19.2927 10.2456 19.7111 10.8079C20.1294 11.3656 20.3408 11.9999 20.3453 12.7106C20.3408 13.4708 20.1069 14.1342 19.6436 14.701C19.1803 15.2678 18.5865 15.6254 17.8623 15.7738V15.8683C18.4156 15.9582 18.9172 16.1651 19.367 16.489C19.8213 16.8084 20.1811 17.2109 20.4465 17.6967C20.7164 18.178 20.8536 18.7066 20.8581 19.2823C20.8536 20.029 20.6219 20.697 20.1631 21.2862C19.7043 21.8755 19.0701 22.341 18.2604 22.6829C17.4553 23.0202 16.5332 23.1889 15.4941 23.1889ZM15.4941 21.0433C15.9574 21.0433 16.3622 20.9601 16.7086 20.7937C17.0549 20.6228 17.3248 20.3888 17.5182 20.092C17.7162 19.7906 17.8151 19.4442 17.8151 19.0529C17.8151 18.6526 17.7139 18.2995 17.5115 17.9936C17.3091 17.6832 17.0347 17.4403 16.6883 17.2649C16.342 17.085 15.9439 16.995 15.4941 16.995C15.0488 16.995 14.6507 17.085 14.2998 17.2649C13.949 17.4403 13.6724 17.6832 13.4699 17.9936C13.272 18.2995 13.1731 18.6526 13.1731 19.0529C13.1731 19.4442 13.2698 19.7906 13.4632 20.092C13.6566 20.3888 13.9288 20.6228 14.2796 20.7937C14.6305 20.9601 15.0353 21.0433 15.4941 21.0433ZM15.4941 14.8697C15.8809 14.8697 16.225 14.791 16.5264 14.6335C16.8278 14.4761 17.0639 14.2579 17.2349 13.979C17.4058 13.7002 17.4913 13.3786 17.4913 13.0142C17.4913 12.6544 17.4058 12.3395 17.2349 12.0696C17.0639 11.7952 16.83 11.5816 16.5332 11.4286C16.2363 11.2712 15.8899 11.1925 15.4941 11.1925C15.1028 11.1925 14.7564 11.2712 14.455 11.4286C14.1537 11.5816 13.9175 11.7952 13.7466 12.0696C13.5802 12.3395 13.4969 12.6544 13.4969 13.0142C13.4969 13.3786 13.5824 13.7002 13.7533 13.979C13.9243 14.2579 14.1604 14.4761 14.4618 14.6335C14.7632 14.791 15.1073 14.8697 15.4941 14.8697Z" fill="#6B7A99"/>
</svg>
