<svg width="20" height="19" viewBox="0 0 20 19" fill="none" xmlns="http://www.w3.org/2000/svg">
<path d="M18.8545 16.3929H0.216964C0.0964287 16.3929 0 16.4893 0 16.6071V18.2143C0 18.3321 0.0964287 18.4286 0.216964 18.4286H18.8545C18.975 18.4286 19.0714 18.3321 19.0714 18.2143V16.6071C19.0714 16.4893 18.975 16.3929 18.8545 16.3929ZM9.36697 13.4196C9.38701 13.4453 9.41262 13.466 9.44186 13.4802C9.4711 13.4945 9.50319 13.5019 9.53572 13.5019C9.56824 13.5019 9.60033 13.4945 9.62957 13.4802C9.65881 13.466 9.68442 13.4453 9.70446 13.4196L12.7045 9.62411C12.8143 9.48482 12.7152 9.27857 12.5357 9.27857H10.5509V0.214286C10.5509 0.0964286 10.4545 0 10.3366 0H8.72946C8.61161 0 8.51518 0.0964286 8.51518 0.214286V9.27589H6.53571C6.35625 9.27589 6.25714 9.48214 6.36697 9.62143L9.36697 13.4196Z" fill="#6B7A99"/>
</svg>
