<?xml version="1.0" encoding="UTF-8"?>
<svg id="_레이어_2" data-name="레이어 2" xmlns="http://www.w3.org/2000/svg" viewBox="0 0 1375.42 222">
  <defs>
    <style>
      .cls-1, .cls-2 {
        fill: #ee3c30;
      }

      .cls-2 {
        fill-rule: evenodd;
      }
    </style>
  </defs>
  <g id="_레이어_1-2" data-name="레이어 1">
    <path class="cls-1" d="M1331.86,200.32h43.56l-47.96-90.86,44.22-84.7h-43.56l-28.16,59.84-28.16-59.84h-43.56l44.22,84.7-47.96,90.86h43.56l31.9-65.34,31.9,65.34Zm-121.63-175.56h-41.8V200.32h41.8V24.76Zm-169.2,175.56h112.64v-33.88h-70.84V24.76h-41.8V200.32Zm-127.4,0h41.8v-70.62h60.72v-33.88h-60.72V58.64h68.42V24.76h-110.22V200.32Zm-23.51-175.56h-41.8V200.32h41.8V24.76Zm-104.02,87.78c0,44.66-9.02,54.78-30.58,54.78h-23.1V57.76h23.1c21.56,0,30.58,10.12,30.58,54.78Zm-28.38,87.78c56.76,0,70.18-36.52,70.18-87.78s-13.42-87.78-70.18-87.78h-67.1V200.32h67.1Zm-199.23,0h112.64v-33.88h-70.84v-39.16h60.72v-33.88h-60.72V58.64h69.74V24.76h-111.54V200.32Zm-98.69,0l34.54-91.08v91.08h40.48V24.76h-40.48l-50.38,133.32L393.14,24.76h-40.26V200.32h40.48V109.24l34.54,91.08h31.9Z"/>
    <path class="cls-2" d="M244.15,0h-35.72c-4.89,0-9.59,1.97-13.05,5.49l-51.3,52.08c-6.01,6.1-15.74,6.1-21.75,0L71.02,5.49c-3.46-3.51-8.15-5.49-13.05-5.49H22.25C9.96,0,0,10.11,0,22.59V199.41c0,12.48,9.96,22.59,22.25,22.59H93.85c-.07,0-.14-.02-.21-.03-.49-.11-.92-.41-1.18-.86,0,0,0,0,0,0l-39.99-70.32c-10.65-18.73-4.38-42.65,14.01-53.43l2.71-1.59c.07-1.51,.35-2.96,.79-4.33,2.15-6.71,8.35-11.56,15.67-11.56,2.71,0,5.26,.67,7.51,1.84,3.84,2,6.81,5.49,8.16,9.72,.52,1.63,.81,3.37,.81,5.17,0,.26,0,.52-.02,.77-.4,8.88-7.61,15.96-16.46,15.96-2.73,0-5.31-.68-7.57-1.87l-2.68,1.57c-4.76,2.79-8.16,7.3-9.58,12.71-1.42,5.43-.68,11.1,2.1,15.98l39.99,70.32c1.86,3.28,4.54,5.98,7.74,7.82,1.59,.91,3.29,1.59,5.05,2.05l.36,.07h.12s23.89,.01,23.89,.01c1.87-.46,3.68-1.17,5.37-2.14,3.2-1.84,5.88-4.54,7.74-7.82l39.99-70.32c2.77-4.88,3.52-10.55,2.1-15.98-1.42-5.41-4.82-9.92-9.58-12.71l-2.68-1.57c-2.27,1.19-4.84,1.87-7.57,1.87-8.85,0-16.07-7.08-16.46-15.96-.01-.26-.02-.51-.02-.77,0-1.81,.29-3.54,.81-5.17,1.35-4.23,4.32-7.72,8.17-9.72,2.25-1.17,4.8-1.84,7.51-1.84,7.32,0,13.53,4.85,15.67,11.56,.44,1.37,.71,2.83,.79,4.33l2.71,1.59c18.39,10.78,24.66,34.7,14.01,53.43l-39.99,70.32s0,0,0,0c-.26,.45-.69,.75-1.18,.86,0,0-.02,0-.03,0v.03h71.73c12.29,0,22.25-10.11,22.25-22.59V22.59c0-12.48-9.96-22.59-22.25-22.59Z"/>
  </g>
</svg>