<svg width="20" height="20" viewBox="0 0 20 20" fill="none" xmlns="http://www.w3.org/2000/svg">
<path d="M18.8753 17.644L13.0785 11.8471C13.978 10.6842 14.4646 9.26228 14.4646 7.76674C14.4646 5.97656 13.766 4.29799 12.5026 3.03237C11.2392 1.76674 9.55615 1.07031 7.76821 1.07031C5.98026 1.07031 4.29722 1.76897 3.03383 3.03237C1.76821 4.29576 1.07178 5.97656 1.07178 7.76674C1.07178 9.55469 1.77044 11.2377 3.03383 12.5011C4.29722 13.7667 5.97803 14.4632 7.76821 14.4632C9.26374 14.4632 10.6834 13.9766 11.8463 13.0792L17.6432 18.8739C17.6602 18.8909 17.6804 18.9044 17.7026 18.9136C17.7248 18.9228 17.7486 18.9275 17.7727 18.9275C17.7967 18.9275 17.8205 18.9228 17.8427 18.9136C17.865 18.9044 17.8851 18.8909 17.9021 18.8739L18.8753 17.9029C18.8924 17.8859 18.9058 17.8657 18.9151 17.8435C18.9243 17.8213 18.929 17.7975 18.929 17.7734C18.929 17.7494 18.9243 17.7256 18.9151 17.7034C18.9058 17.6812 18.8924 17.661 18.8753 17.644V17.644ZM11.3039 11.3025C10.3575 12.2467 9.10303 12.7667 7.76821 12.7667C6.43338 12.7667 5.17892 12.2467 4.23249 11.3025C3.2883 10.356 2.76821 9.10156 2.76821 7.76674C2.76821 6.43192 3.2883 5.17522 4.23249 4.23103C5.17892 3.28683 6.43338 2.76674 7.76821 2.76674C9.10303 2.76674 10.3597 3.2846 11.3039 4.23103C12.2481 5.17746 12.7682 6.43192 12.7682 7.76674C12.7682 9.10156 12.2481 10.3583 11.3039 11.3025Z" fill="#6B7A99"/>
</svg>
