<svg width="26" height="26" viewBox="0 0 26 26" fill="none" xmlns="http://www.w3.org/2000/svg">
<path d="M21.8181 14.4621L21.8231 14.4646C21.9019 13.9848 21.9399 13.4947 21.9399 13.0098C21.9399 12.5756 21.9069 12.1389 21.846 11.7123C21.9069 12.1363 21.9374 12.5654 21.9374 12.9945C21.9374 13.4871 21.8968 13.9797 21.8181 14.4621ZM2.51357 10.1051C2.50088 10.0949 2.49072 10.0848 2.47803 10.0721C2.4958 10.0898 2.51357 10.1076 2.53389 10.1254L4.19697 11.5447V11.5422L2.51357 10.1051ZM16.1382 4.6207H16.1407L15.7472 2.49297C15.7421 2.46758 15.737 2.44473 15.7294 2.42188C15.7319 2.43457 15.737 2.4498 15.7396 2.4625L16.1382 4.6207ZM17.5093 18.4967L18.3065 17.8416L20.6628 18.677C21.0944 18.0955 21.4575 17.4709 21.7444 16.8082L19.8478 15.1857L20.0153 14.1676C20.0788 13.7842 20.1118 13.3906 20.1118 12.9971C20.1118 12.6035 20.0788 12.21 20.0153 11.8266L19.8503 10.8135L21.747 9.19102C21.4575 8.53086 21.097 7.90371 20.6653 7.32227L18.3091 8.15762L17.5118 7.50254C16.905 7.00488 16.2271 6.61387 15.4983 6.33965L14.531 5.97656L14.0765 3.51367C13.3594 3.43242 12.6354 3.43242 11.9183 3.51367L11.4638 5.98164L10.5015 6.34473C9.77783 6.61895 9.10498 7.00996 8.50322 7.50508L7.70596 8.1627L5.33447 7.31973C4.90283 7.90117 4.53975 8.52578 4.25283 9.18848L6.16982 10.8262L6.00479 11.8418C5.94131 12.2201 5.91084 12.6086 5.91084 12.9971C5.91084 13.383 5.94385 13.774 6.00479 14.1523L6.16982 15.168L4.25283 16.8057C4.54229 17.4658 4.90283 18.093 5.33447 18.6744L7.70596 17.8314L8.50322 18.4891C9.10498 18.9842 9.77783 19.3752 10.5015 19.6494L11.4612 20.0176L11.9157 22.4855C12.6317 22.5668 13.3604 22.5668 14.0739 22.4855L14.5284 20.0227L15.4958 19.6596C16.2271 19.3854 16.9024 18.9943 17.5093 18.4967ZM13.0126 17.2195C12.2382 17.2195 11.5095 17.0215 10.8722 16.6736C9.47822 15.917 8.53115 14.4418 8.53115 12.7432C8.53115 10.2752 10.5319 8.27441 12.9999 8.27441C14.6985 8.27441 16.1737 9.22148 16.9304 10.6154C17.2782 11.2502 17.4763 11.9789 17.4763 12.7559C17.4763 15.2213 15.478 17.2195 13.0126 17.2195ZM5.26084 20.6346C5.12119 20.6828 4.97646 20.693 4.83936 20.665C4.98408 20.6955 5.13643 20.6904 5.28369 20.6396L7.35049 19.9033C7.34795 19.9008 7.34287 19.8982 7.34033 19.8957L5.26084 20.6346ZM23.4812 10.1051L21.8181 11.527C21.8181 11.532 21.8206 11.5396 21.8206 11.5447L23.4812 10.1254C23.6614 9.97051 23.763 9.74707 23.7655 9.51602C23.7579 9.73945 23.6563 9.95527 23.4812 10.1051Z" fill="#6B7A99"/>
<path d="M23.7604 16.4146C23.7731 16.534 23.7604 16.6559 23.7172 16.7727L23.6944 16.8387C23.2354 18.1178 22.5499 19.3038 21.6707 20.34L21.625 20.3934C21.5185 20.5193 21.3762 20.6098 21.217 20.6529C21.0578 20.6959 20.8893 20.6896 20.7338 20.6346L18.6696 19.9008C17.9123 20.5247 17.0569 21.0189 16.1381 21.3633L15.7395 23.5215C15.7094 23.6839 15.6306 23.8333 15.5136 23.9498C15.3966 24.0664 15.2469 24.1446 15.0844 24.174L15.0159 24.1867C14.3523 24.3067 13.6793 24.367 13.0049 24.367H13.0125C13.6905 24.367 14.3684 24.3061 15.0286 24.1867L15.0971 24.174C15.2596 24.1446 15.4093 24.0664 15.5263 23.9498C15.6433 23.8333 15.7221 23.6839 15.7522 23.5215L16.1508 21.3658C17.07 21.0205 17.918 20.5305 18.6797 19.9059L20.7414 20.6396C20.8969 20.6946 21.0654 20.701 21.2246 20.6579C21.3838 20.6148 21.5261 20.5243 21.6326 20.3984L21.6783 20.3451C22.5619 19.3016 23.2399 18.126 23.6994 16.8488L23.7223 16.7828C23.7629 16.6635 23.7756 16.5365 23.7604 16.4146Z" fill="#6B7A99"/>
<path d="M17.469 12.7499C17.469 11.9806 17.2734 11.2544 16.9307 10.6222C16.174 9.22822 14.6988 8.28115 13.0002 8.28115C10.5322 8.28115 8.53146 10.2819 8.53146 12.7499C8.53146 14.4485 9.47853 15.9237 10.8725 16.6804C11.5047 17.0231 12.2283 17.2187 13.0002 17.2187C15.4682 17.2187 17.469 15.2179 17.469 12.7499ZM10.1565 12.7499C10.1565 11.9907 10.4535 11.2772 10.9893 10.739C11.5275 10.2007 12.241 9.90615 13.0002 9.90615C13.7594 9.90615 14.4729 10.2007 15.0111 10.739C15.2757 11.0027 15.4854 11.3162 15.6283 11.6613C15.7713 12.0064 15.8445 12.3764 15.844 12.7499C15.844 13.5091 15.5469 14.2226 15.0111 14.7608C14.7474 15.0254 14.4339 15.2351 14.0888 15.378C13.7437 15.521 13.3737 15.5942 13.0002 15.5937C12.241 15.5937 11.5275 15.2966 10.9893 14.7608C10.7248 14.4971 10.515 14.1836 10.3721 13.8385C10.2292 13.4934 10.1559 13.1234 10.1565 12.7499Z" fill="#6B7A99"/>
<path d="M15.0848 24.1808C15.2473 24.1513 15.397 24.0731 15.514 23.9566C15.631 23.84 15.7098 23.6906 15.7398 23.5282L16.1385 21.37C17.0572 21.0256 17.9126 20.5314 18.6699 19.9075L20.7342 20.6413C20.8897 20.6963 21.0582 20.7027 21.2174 20.6596C21.3766 20.6165 21.5189 20.526 21.6254 20.4001L21.6711 20.3468C22.5547 19.3032 23.2352 18.1251 23.6947 16.8454L23.7176 16.7794C23.7607 16.6626 23.7734 16.5407 23.7607 16.4214C23.7379 16.2208 23.6414 16.0304 23.4814 15.8907L21.8234 14.4714L21.8184 14.4689C21.8971 13.9864 21.9377 13.4939 21.9377 13.0013C21.9377 12.5722 21.9072 12.1405 21.8463 11.7191C21.8387 11.6632 21.8285 11.6073 21.8209 11.5515C21.8209 11.5464 21.8184 11.5388 21.8184 11.5337L23.4814 10.1118C23.6566 9.96202 23.7582 9.7462 23.7658 9.52276C23.7684 9.4212 23.7531 9.3171 23.7176 9.21807L23.6947 9.15206C23.2369 7.87244 22.5513 6.68621 21.6711 5.65069L21.6254 5.59737C21.5186 5.47181 21.3763 5.38156 21.2172 5.3385C21.0581 5.29544 20.8897 5.3016 20.7342 5.35616L18.6699 6.08994C17.9082 5.46534 17.0602 4.97276 16.141 4.62744H16.1385L15.7398 2.46924C15.7373 2.45654 15.7348 2.44131 15.7297 2.42861C15.693 2.2751 15.6126 2.13554 15.4981 2.02691C15.3836 1.91828 15.24 1.84525 15.0848 1.8167L15.0162 1.804C13.6934 1.56533 12.302 1.56533 10.9791 1.804L10.9106 1.8167C10.748 1.84614 10.5983 1.92434 10.4813 2.04089C10.3643 2.15745 10.2855 2.30685 10.2555 2.46924L9.8543 4.6376C8.94249 4.98298 8.09338 5.4753 7.34063 6.09502L5.26114 5.35616C5.10566 5.30116 4.93713 5.29479 4.77794 5.33787C4.61875 5.38096 4.47644 5.47147 4.36993 5.59737L4.32422 5.65069C3.44506 6.68694 2.75959 7.87297 2.30059 9.15206L2.27774 9.21807C2.22483 9.36564 2.21561 9.52533 2.25119 9.678C2.28677 9.83068 2.36563 9.96984 2.47833 10.0788C2.49102 10.089 2.50118 10.1017 2.51387 10.1118L4.19727 11.5489V11.5515C4.11856 12.0288 4.08047 12.5138 4.08047 12.9987C4.08047 13.4862 4.11856 13.9737 4.19727 14.4485L2.51387 15.8857C2.38843 15.993 2.29865 16.1361 2.25647 16.2957C2.21429 16.4554 2.22171 16.6241 2.27774 16.7794L2.30059 16.8454C2.76016 18.1251 3.44063 19.3058 4.32422 20.3468L4.36993 20.4001C4.49434 20.5448 4.65938 20.6388 4.83965 20.6718C4.97676 20.6972 5.12149 20.6896 5.26114 20.6413L7.34063 19.9025C7.34317 19.905 7.34825 19.9075 7.35079 19.9101C8.10489 20.5271 8.94532 21.0171 9.8543 21.3599L10.2555 23.5282C10.2855 23.6906 10.3643 23.84 10.4813 23.9566C10.5983 24.0731 10.748 24.1513 10.9106 24.1808L10.9791 24.1935C11.6418 24.3128 12.3197 24.3738 12.9977 24.3738H13.0053C13.6807 24.3738 14.3586 24.3128 15.0162 24.1935L15.0848 24.1808ZM14.0742 22.4923C13.3571 22.5736 12.6331 22.5736 11.916 22.4923L11.4615 20.0243L10.5018 19.6562C9.77813 19.382 9.10528 18.9909 8.50352 18.4958L7.70625 17.8382L5.33477 18.6812C4.90313 18.0997 4.54258 17.4726 4.25313 16.8124L6.17012 15.1747L6.00508 14.1591C5.94415 13.7808 5.91114 13.3898 5.91114 13.0038C5.91114 12.6153 5.94161 12.2269 6.00508 11.8485L6.17012 10.8329L4.25313 9.19522C4.54004 8.53252 4.90313 7.90792 5.33477 7.32647L7.70625 8.16944L8.50352 7.51182C9.10528 7.0167 9.77813 6.62569 10.5018 6.35147L11.4641 5.98838L11.9186 3.52041C12.632 3.43916 13.3607 3.43916 14.0768 3.52041L14.5313 5.9833L15.4986 6.34639C16.2273 6.62061 16.9053 7.01163 17.5121 7.50928L18.3094 8.16436L20.6656 7.32901C21.0973 7.91045 21.4578 8.5376 21.7473 9.19776L19.8506 10.8202L20.0156 11.8333C20.0791 12.2167 20.1121 12.6103 20.1121 13.0038C20.1121 13.3974 20.0791 13.7909 20.0156 14.1743L19.848 15.1925L21.7447 16.815C21.4572 17.4774 21.0943 18.1044 20.6631 18.6837L18.3068 17.8484L17.5096 18.5034C16.9027 19.0011 16.2273 19.3921 15.4961 19.6663L14.5287 20.0294L14.0742 22.4923Z" fill="#6B7A99"/>
</svg>
