<svg width="26" height="27" viewBox="0 0 26 27" fill="none" xmlns="http://www.w3.org/2000/svg">
<path d="M13 1.85938C6.71836 1.85938 1.625 7.02488 1.625 13.3955C1.625 19.7661 6.71836 24.9316 13 24.9316C19.2816 24.9316 24.375 19.7661 24.375 13.3955C24.375 7.02488 19.2816 1.85938 13 1.85938ZM7.3125 11.0522C7.31901 10.7288 7.45027 10.4208 7.67813 10.1944C7.90598 9.96799 8.21226 9.84118 8.53125 9.84118C8.85024 9.84118 9.15652 9.96799 9.38437 10.1944C9.61223 10.4208 9.74349 10.7288 9.75 11.0522C9.74349 11.3757 9.61223 11.6836 9.38437 11.91C9.15652 12.1364 8.85024 12.2633 8.53125 12.2633C8.21226 12.2633 7.90598 12.1364 7.67813 11.91C7.45027 11.6836 7.31901 11.3757 7.3125 11.0522ZM13 18.0563C10.8291 18.0563 9.04922 16.3233 8.9375 14.1526C8.93612 14.1246 8.94036 14.0967 8.94995 14.0706C8.95954 14.0444 8.97428 14.0204 8.99328 14.0002C9.01228 13.9799 9.03514 13.9638 9.06047 13.9529C9.0858 13.9419 9.11307 13.9362 9.14062 13.9362H10.3619C10.4686 13.9362 10.56 14.0187 10.5676 14.1268C10.6641 15.4014 11.7178 16.4083 13 16.4083C14.2822 16.4083 15.3385 15.4014 15.4324 14.1268C15.44 14.0187 15.5314 13.9362 15.6381 13.9362H16.8594C16.8869 13.9362 16.9142 13.9419 16.9395 13.9529C16.9649 13.9638 16.9877 13.9799 17.0067 14.0002C17.0257 14.0204 17.0405 14.0444 17.0501 14.0706C17.0596 14.0967 17.0639 14.1246 17.0625 14.1526C16.9508 16.3233 15.1709 18.0563 13 18.0563ZM17.4688 12.2882C17.1498 12.2816 16.8462 12.1485 16.6229 11.9174C16.3997 11.6863 16.2746 11.3757 16.2746 11.0522C16.2746 10.7287 16.3997 10.4181 16.6229 10.187C16.8462 9.95593 17.1498 9.82281 17.4688 9.81621C17.7877 9.82281 18.0913 9.95593 18.3146 10.187C18.5378 10.4181 18.6629 10.7287 18.6629 11.0522C18.6629 11.3757 18.5378 11.6863 18.3146 11.9174C18.0913 12.1485 17.7877 12.2816 17.4688 12.2882Z" fill="E4E7ED"/>
</svg>
